<?xml version="1.0" encoding="UTF-8"?>
<svg id="Capa_1" xmlns="http://www.w3.org/2000/svg" version="1.1" viewBox="0 0 795.574 130.723">
  <!-- Generator: Adobe Illustrator 29.8.6, SVG Export Plug-In . SVG Version: 2.1.1 Build 1)  -->
  <defs>
    <style>
      .st0 {
        font-family: PPNeueBit-Bold, 'PP NeueBit';
        font-size: 172.043px;
        font-weight: 700;
        isolation: isolate;
        letter-spacing: .01em;
      }
    </style>
  </defs>
  <g id="logo">
    <g id="isotype">
      <polygon points="52.525 49.478 69.398 49.478 69.398 44.025 47.073 44.025 47.073 106.876 69.398 106.876 69.398 101.424 52.525 101.424 52.525 49.478"/>
      <path d="M150.022,74.114c-5.59,9.937-12.203,15.41-18.623,15.41-2.094,0-4.209-.593-6.302-1.722l19.821-43.418-4.96-2.264-19.354,42.394c-2.738-2.554-5.381-6.049-7.828-10.4-3.492-6.208-7.062-10.386-10.474-13.157l8.055-17.645-4.96-2.264-7.716,16.903c-3.077-1.527-5.908-2.025-8.28-2.025-5.996,0-14.919,3.156-23.375,18.189l4.752,2.673c5.59-9.937,12.203-15.41,18.623-15.41,1.995,0,4.008.53,6.004,1.557l-19.407,42.511,4.96,2.265,18.971-41.557c2.832,2.574,5.568,6.143,8.095,10.634,3.399,6.043,6.873,10.164,10.203,12.935l-7.668,16.796,4.96,2.265,7.296-15.982c3.195,1.648,6.134,2.176,8.584,2.176,5.996,0,14.919-3.155,23.375-18.189l-4.752-2.673Z"/>
      <polygon points="152.399 44.189 152.399 49.642 169.272 49.642 169.272 101.587 152.399 101.587 152.399 107.04 174.725 107.04 174.725 44.189 152.399 44.189"/>
    </g>
    <g id="wordmark">
      <text class="st0" transform="translate(210.045 106.641)"><tspan x="0" y="0">barrocode</tspan></text>
    </g>
  </g>
</svg>